<svg xmlns="http://www.w3.org/2000/svg" width="600" height="338" style="shape-rendering:geometricPrecision;text-rendering:geometricPrecision;image-rendering:optimizeQuality;fill-rule:evenodd;clip-rule:evenodd"><path style="opacity:.985" fill="#fbfbfb" d="M535.5 133.5a3328.449 3328.449 0 0 0-6 18c.783 1.788 2.116 2.788 4 3a77.418 77.418 0 0 1 11.5 14c1.718 4.295 1.885 8.628.5 13-10.035 12.786-20.535 13.119-31.5 1-2.207 13.105-2.707 26.105-1.5 39 2.434 1.271 3.934 3.271 4.5 6 .659 3.388.492 6.721-.5 10-2.314 3.295-4.148 6.962-5.5 11-4.53 5.671-10.363 7.504-17.5 5.5a68.116 68.116 0 0 0-7.5-2.5 115.659 115.659 0 0 1-11.5 2 27.624 27.624 0 0 1-2.5 10 86.276 86.276 0 0 1-12.5 9.5c-3.597 1.277-7.264 1.61-11 1a104.61 104.61 0 0 1-12-6.5 17.335 17.335 0 0 1-7 3.5c-6.325.5-12.658.666-19 .5v21c-1.137 5.417-4.137 9.583-9 12.5a122.563 122.563 0 0 1-30 1c-3.76-1.461-6.593-3.961-8.5-7.5a3206.852 3206.852 0 0 0-3.5-30c-17.632 8.672-33.299 6.005-47-8-2.568 2.217-5.568 3.384-9 3.5-2.534 6.789-7.534 10.456-15 11-4.648.883-8.981.05-13-2.5-4.474 1.968-9.14 2.468-14 1.5-2.176-.163-4.009-.996-5.5-2.5-4.536 4.652-10.036 6.152-16.5 4.5a85.155 85.155 0 0 1-10-8.5 63.543 63.543 0 0 0-14 7.5 38.186 38.186 0 0 1-15 1c-2.534-.516-4.7-1.683-6.5-3.5-8.895 5.289-16.895 3.956-24-4-1.202-2.177-1.702-4.511-1.5-7-1.788-.285-3.455.048-5 1-5.43 13.573-14.096 16.407-26 8.5l-7.5-2.5c-4.084 3.791-8.917 6.125-14.5 7-4.108-.187-7.442-1.854-10-5-2.633 3.049-5.966 4.883-10 5.5a67.627 67.627 0 0 1-19.5-.5c-4.467 2.166-8.967 2.333-13.5.5a107.248 107.248 0 0 0-9-8.5 36.934 36.934 0 0 1-1-6 333.449 333.449 0 0 0 3.5-29c1.167-5.167 4.333-8.333 9.5-9.5 10.781-1.009 21.448-.509 32 1.5a25.136 25.136 0 0 0 4 4.5l17 1a37.143 37.143 0 0 1 8 2.5 33.033 33.033 0 0 0 8-5l-10-7c-4.772 3.589-10.106 4.755-16 3.5-4.195-3.03-7.861-6.53-11-10.5-1.42-4.803-1.088-9.469 1-14a136.98 136.98 0 0 0 15-13 61.04 61.04 0 0 0-7.5-2c-2.602 1.529-5.435 2.529-8.5 3a64.318 64.318 0 0 1-12.5-4c-14.09 4.532-24.257.199-30.5-13a565.818 565.818 0 0 0 3.5-32c.69-2.696 2.19-4.863 4.5-6.5a56.473 56.473 0 0 1 12-5 30.485 30.485 0 0 1 11 0c4.08 1.134 7.913 2.634 11.5 4.5 2.88.451 4.712-.715 5.5-3.5a20.51 20.51 0 0 1 8-3 276.254 276.254 0 0 1 37-1.5c-.327-1.988-.66-3.988-1-6l11.5-69c1.946-7.397 6.779-11.064 14.5-11 9.61.656 18.943 2.49 28 5.5 4.556 5.059 5.889 10.892 4 17.5a41.67 41.67 0 0 0-2 6c.825.886 1.825 1.219 3 1 4.733-.277 9.4.056 14 1 12.71-19.334 30.376-25.834 53-19.5a43.363 43.363 0 0 1 9.5 4.5c2.367-6.199 6.867-9.532 13.5-10a299.135 299.135 0 0 1 24 4.5 25.558 25.558 0 0 1 5.5 6.5 263.149 263.149 0 0 1 1.5 15 292.724 292.724 0 0 1 16 2.5c3.814 2.48 5.981 5.98 6.5 10.5 7.014-6.13 15.18-8.296 24.5-6.5 6.827 1.335 12.327 4.835 16.5 10.5a75.259 75.259 0 0 1 5.5-11c4.598-1.192 4.931-2.859 1-5-.992-3.279-1.159-6.612-.5-10 2.015-8.063 5.182-15.563 9.5-22.5 3.1-1.755 6.433-2.589 10-2.5 18.022 1.258 32.522 8.925 43.5 23 3.141 5.256 4.974 10.923 5.5 17 26.42-6.694 47.587.972 63.5 23 5.93 10.904 8.43 22.571 7.5 35Zm-76 55c-7.761 3.26-13.427 8.76-17 16.5a395.784 395.784 0 0 0-19-.5c.881-5.983-.452-11.316-4-16-1.412-1.306-3.079-2.14-5-2.5a152.41 152.41 0 0 0-15-1.5 51.569 51.569 0 0 0-1-7 51.569 51.569 0 0 1 1-7 73.314 73.314 0 0 0 1-12c14.011-.515 22.844-7.515 26.5-21 1.307 23.324 12.141 40.324 32.5 51Z"/><path style="opacity:1" fill="#444" d="M413.5 46.5c12.838 1.44 24.005 6.44 33.5 15 8.611 11.971 8.611 23.971 0 36-15.544 13.292-31.21 13.292-47 0 .472-5.087 1.972-9.92 4.5-14.5a165.038 165.038 0 0 0 13.5 3.5c7.421-.085 10.421-3.752 9-11-5.503-5.615-12.169-8.948-20-10a71.237 71.237 0 0 1 6.5-19Z"/><path style="opacity:1" fill="#434343" d="M189.5 78.5c-8.785-2.04-17.118-1.04-25 3a276.38 276.38 0 0 1 5-31.5 79.452 79.452 0 0 1 23.5 2.5 117.268 117.268 0 0 1-3.5 26ZM336.5 82.5a24.939 24.939 0 0 0-7 .5c-8.005 21.278-23.505 32.445-46.5 33.5a221.843 221.843 0 0 1-20.5-3c4.569-5.041 6.569-11.041 6-18 .823-6.031-.844-11.198-5-15.5-7.261-3.428-12.094-1.261-14.5 6.5-.849 6.461-.349 12.794 1.5 19a208.22 208.22 0 0 0-24-13c-.283-16.29 7.051-27.457 22-33.5 19.328-3.423 32.828 3.743 40.5 21.5a449.544 449.544 0 0 0 4-24 7.93 7.93 0 0 1 3.5-1 500.04 500.04 0 0 0 17.5 3 695.326 695.326 0 0 1-6.5 39.5l1 3.5a15.418 15.418 0 0 0 7 1 108.41 108.41 0 0 1 1-20.5c6.846-.82 13.513-.654 20 .5Z"/><path style="opacity:.676" fill="#989898" d="M204.5 60.5a21.434 21.434 0 0 1 1 7c-1.175.219-2.175-.114-3-1a41.67 41.67 0 0 1 2-6Z"/><path style="opacity:.724" fill="#999" d="M396.5 70.5c3.931 2.141 3.598 3.808-1 5-.134-1.791.199-3.458 1-5Z"/><path style="opacity:1" fill="#252525" d="M189.5 78.5a740.408 740.408 0 0 0-3 18.5c.006 2.033.339 3.866 1 5.5 2.448.973 5.115 1.306 8 1v-9c-.319-4.863.014-9.53 1-14a122.336 122.336 0 0 1 22 7.5c.752.67 1.086 1.504 1 2.5v14h8a128.32 128.32 0 0 1-1-12 208.22 208.22 0 0 1 24 13c1.171 7.199 5.171 9.866 12 8a221.843 221.843 0 0 0 20.5 3c22.995-1.055 38.495-12.222 46.5-33.5a24.939 24.939 0 0 1 7-.5c.293 6.805.293 13.805 0 21h7a162.597 162.597 0 0 1-.5 18c-2.381.935-4.881 1.268-7.5 1 .277 2.948-.056 5.781-1 8.5a90.455 90.455 0 0 1-19 0c-.556-.383-.889-.883-1-1.5v-9h-5a187.796 187.796 0 0 0-25-.5l-4.5 6.5a25.84 25.84 0 0 0-6.5 5.5 1132.729 1132.729 0 0 1 17 27.5 290.695 290.695 0 0 0 2-34h18v17c-.99 6.145-1.323 12.478-1 19a74.548 74.548 0 0 0-21 9.5 18.991 18.991 0 0 1-8 1.5 313.366 313.366 0 0 0-12.5-20c-.005 4.647.162 9.314.5 14 .065.438-.101.772-.5 1-5.358-5.093-11.524-8.76-18.5-11a242.3 242.3 0 0 0-2-24c-9.002-5.31-15.168-12.977-18.5-23l-1 16c-3.394.956-6.894 1.289-10.5 1 .289 3.606-.044 7.106-1 10.5a90.455 90.455 0 0 1-19 0 11.333 11.333 0 0 1-3.5-1.5 60.931 60.931 0 0 1-.5-11 677.496 677.496 0 0 1-30-1 189.013 189.013 0 0 0-4-13 221.484 221.484 0 0 1 5-29c7.882-4.04 16.215-5.04 25-3Z"/><path style="opacity:1" fill="#fafafa" d="M262.5 113.5c-6.829 1.866-10.829-.801-12-8-1.849-6.206-2.349-12.539-1.5-19 2.406-7.761 7.239-9.928 14.5-6.5 4.156 4.302 5.823 9.469 5 15.5.569 6.959-1.431 12.959-6 18Z"/><path style="opacity:1" fill="#464646" d="M219.5 90.5c.086-.996-.248-1.83-1-2.5a122.336 122.336 0 0 0-22-7.5c.111-.617.444-1.117 1-1.5a212.16 212.16 0 0 1 22 1c1.32 3.601 1.32 7.101 0 10.5Z"/><path style="opacity:1" fill="#454545" d="M473.5 84.5c29.724-1.265 46.724 12.735 51 42-.406 9.885-3.406 18.885-9 27a495.839 495.839 0 0 0 18.5 19c1.234 7.431-1.6 9.598-8.5 6.5a373.002 373.002 0 0 1-22.5-23.5c-.667-1.333-.667-2.667 0-4 12.31-13.671 13.643-28.338 4-44-12.323-12.87-26.49-15.37-42.5-7.5-14.495 10.807-18.328 24.641-11.5 41.5 9.677 15.346 23.51 21.179 41.5 17.5 3.47 5.728 1.803 9.061-5 10-25.314 2.593-41.814-8.241-49.5-32.5-3.099-26.701 8.068-44.035 33.5-52Z"/><path style="opacity:1" fill="#565656" d="M363.5 86.5c8.456-.692 14.622 2.641 18.5 10 .667 1.667.667 3.333 0 5-3.158-10.166-9.991-14-20.5-11.5-3.407 1.74-5.74 4.406-7 8 2.247 2.778 1.747 5.278-1.5 7.5a19.953 19.953 0 0 1-4.5-3c.825-.886 1.825-1.219 3-1 1.084-7.41 5.084-12.41 12-15Z"/><path style="opacity:1" fill="#a5a5a5" d="M195.5 94.5v9c-2.885.306-5.552-.027-8-1h7c-.306-2.885.027-5.552 1-8Z"/><path style="opacity:1" fill="#717171" d="M381.5 103.5c1.837.139 2.17.806 1 2-.798-.457-1.131-1.124-1-2Z"/><path style="opacity:1" fill="#454545" d="M396.5 105.5c16.549-.186 22.382 7.481 17.5 23-8.368 9.246-16.701 9.246-25 0-4.586-10.075-2.086-17.741 7.5-23Z"/><path style="opacity:1" fill="#5a5a5a" d="M379.5 107.5c1.837.139 2.17.806 1 2-.798-.457-1.131-1.124-1-2Z"/><path style="opacity:1" fill="#585858" d="M355.5 111.5c1.837.139 2.17.806 1 2-.798-.457-1.131-1.124-1-2Z"/><path style="opacity:1" fill="#696969" d="M377.5 111.5c1.837.139 2.17.806 1 2-.798-.457-1.131-1.124-1-2Z"/><path style="opacity:1" fill="#4a4a4a" d="M159.5 110.5a189.013 189.013 0 0 1 4 13c-2.082-.124-3.582-1.124-4.5-3-.808-3.527-.641-6.86.5-10Z"/><path style="opacity:1" fill="#6e6e6e" d="M374.5 113.5c1.965.448 2.298 1.448 1 3-.886-.825-1.219-1.825-1-3Z"/><path style="opacity:1" fill="#6a6a6a" d="M358.5 114.5c1.837.139 2.17.806 1 2-.798-.457-1.131-1.124-1-2Z"/><path style="opacity:1" fill="#555" d="M362.5 115.5c1.837.139 2.17.806 1 2-.798-.457-1.131-1.124-1-2ZM370.5 115.5c1.837.139 2.17.806 1 2-.798-.457-1.131-1.124-1-2Z"/><path style="opacity:1" fill="#505050" d="M366.5 116.5c1.837.139 2.17.806 1 2-.798-.457-1.131-1.124-1-2Z"/><path style="opacity:1" fill="#a0a0a0" d="M309.5 120.5h5v9c-.973-2.448-1.306-5.115-1-8-1.599.268-2.932-.066-4-1Z"/><path style="opacity:.922" fill="#959595" d="M459.5 188.5c-20.359-10.676-31.193-27.676-32.5-51-3.656 13.485-12.489 20.485-26.5 21a73.314 73.314 0 0 1-1 12c-1.227-2.132-2.227-4.466-3-7 2.61-5.311 3.61-10.978 3-17 17.539-1.038 27.039-10.371 28.5-28-1.88 27.083 9.287 46.583 33.5 58.5a28.778 28.778 0 0 0 11 2.5v7c-4.51-.229-8.843.438-13 2Z"/><path style="opacity:1" fill="#262626" d="M381.5 162.5c-.418.722-1.084 1.222-2 1.5-5.323.499-10.656.666-16 .5v-10h-4v9l-16-3c-1.219-7.564-5.552-10.064-13-7.5-2.234 1.638-3.567 3.805-4 6.5a96.873 96.873 0 0 0-16 1c-.221-2.779.112-5.446 1-8 3.29-7.446 8.957-12.279 17-14.5 10.356-1.706 19.19 1.127 26.5 8.5 1.252-2.514 1.752-5.18 1.5-8h7v-11h19v12a18.453 18.453 0 0 1 6 .5 3.943 3.943 0 0 1 1 2 123.194 123.194 0 0 0-1.5 13.5c-2.041.923-4.208 1.256-6.5 1v6Z"/><path style="opacity:1" fill="#464646" d="M140.5 159.5c-.761-.891-1.761-1.558-3-2a19.048 19.048 0 0 1-6 1v-2h5v-10h4c-.17-1.322.163-2.489 1-3.5-3-.667-6-.667-9 0l-2 4c1.723.523 3.056 1.523 4 3a44.053 44.053 0 0 0-3 5.5 5.727 5.727 0 0 1-3 1c-2.145-.238-3.812-1.238-5-3a51.064 51.064 0 0 1 4-5.5 8.43 8.43 0 0 0-4-.5 54.968 54.968 0 0 0-1-12c8.583.262 17.25.429 26 .5 2.391 3.28 2.558 6.78.5 10.5-1.356.88-2.856 1.214-4.5 1v3c4.012-.613 6.012 1.054 6 5l-10 1v3Z"/><path style="opacity:.785" fill="#969696" d="M535.5 133.5a80.855 80.855 0 0 1-2 21c-1.884-.212-3.217-1.212-4-3a3328.449 3328.449 0 0 1 6-18Z"/><path style="opacity:1" fill="#464646" d="M122.5 161.5c-.077-1.25-.744-2.083-2-2.5a47.926 47.926 0 0 1-12-2.5c1.575-1.614 2.241-3.614 2-6h-3v-8h3v-6h9v6h3c.358 3.398-.308 6.565-2 9.5 2.39 3.025 3.057 6.192 2 9.5Z"/><path style="opacity:1" fill="#474747" d="M173.5 157.5a92.746 92.746 0 0 1-10-4c-.929 1.189-1.262 2.522-1 4-1.342-6.932-1.008-13.932 1-21 3.27-.692 6.603-.692 10 0a62.005 62.005 0 0 0 0 21Z"/><path style="opacity:1" fill="#454545" d="M87.5 152.5a52.394 52.394 0 0 0-13 1c.734-1.208 1.067-2.541 1-4h-7v-8h7v-3h9v3h4v8c-4.775.17-5.108 1.17-1 3Z"/><path style="opacity:1" fill="#474747" d="M236.5 150.5a21.127 21.127 0 0 0-9 1c-.363.683-.696 1.35-1 2-5.742-6.587-11.576-6.587-17.5 0-.49 2.045-.323 4.045.5 6-2.7 1.734-4.7 4.068-6 7-7.821-15.356-3.155-24.356 14-27 8.591-.046 14.925 3.62 19 11Z"/><path style="opacity:1" fill="#494949" d="M95.5 142.5c3.58 1.908 6.58 4.574 9 8a579.57 579.57 0 0 1-6 5 86.347 86.347 0 0 1-7-8.5 25.565 25.565 0 0 0 4-4.5Z"/><path style="opacity:1" fill="#e6e6e6" d="M131.5 156.5v-1a44.053 44.053 0 0 1 3-5.5c-.944-1.477-2.277-2.477-4-3l2-4c3-.667 6-.667 9 0-.837 1.011-1.17 2.178-1 3.5h-4v10h-5Z"/><path style="opacity:1" fill="#282828" d="M236.5 150.5c2.947 10.159.28 18.493-8 25-2.755-1.131-5.089-2.798-7-5a77.927 77.927 0 0 0 5.5-9c.722-2.761.555-5.427-.5-8 .304-.65.637-1.317 1-2a21.127 21.127 0 0 1 9-1Z"/><path style="opacity:1" fill="#f5f5f5" d="M343.5 160.5c-1.562 9.533-6.395 11.866-14.5 7-1.707-2.409-2.54-5.075-2.5-8 .433-2.695 1.766-4.862 4-6.5 7.448-2.564 11.781-.064 13 7.5Z"/><path style="opacity:1" fill="#292929" d="M87.5 152.5c12.072 2.894 16.239 10.228 12.5 22a7.253 7.253 0 0 1-2.5 2 36.168 36.168 0 0 1-7-4c2.018-4.629 1.018-8.296-3-11-.709-.904-1.709-1.237-3-1v8c-2.382 4.975-6.382 6.809-12 5.5-8.497-5.344-9.163-11.678-2-19a10.136 10.136 0 0 1 4-1.5 52.394 52.394 0 0 1 13-1Z"/><path style="opacity:1" fill="#282929" d="M173.5 157.5c1.486 5.157 4.819 8.157 10 9a30.109 30.109 0 0 1-3 8.5c-10.952-.448-16.952-6.281-18-17.5-.262-1.478.071-2.811 1-4a92.746 92.746 0 0 0 10 4Z"/><path style="opacity:1" fill="#2b2b2b" d="M203.5 166.5c1.3-2.932 3.3-5.266 6-7a22.581 22.581 0 0 0 8-4 45.375 45.375 0 0 1 4 8.5c-4.653 5.029-10.32 6.862-17 5.5a5.576 5.576 0 0 1-1-3Z"/><path style="opacity:1" fill="#454545" d="M249.5 156.5c6.976 2.24 13.142 5.907 18.5 11 .399-.228.565-.562.5-1 1.687 7.116 2.187 14.449 1.5 22a116.033 116.033 0 0 1-18.5 2 1069.012 1069.012 0 0 0-2-34Z"/><path style="opacity:1" fill="#282828" d="M108.5 156.5a47.926 47.926 0 0 0 12 2.5c1.256.417 1.923 1.25 2 2.5-1.744 3.965-3.078 8.298-4 13-2.973 1.009-5.973 1.009-9 0 .17-2.348.503-4.682 1-7a40.072 40.072 0 0 1-4-9.5c.336-1.03 1.003-1.53 2-1.5Z"/><path style="opacity:1" fill="#262626" d="M140.5 159.5h8v7h-9v9c-2.448.973-5.115 1.306-8 1v-9c-2.107-.968-4.441-1.302-7-1v-6c2.888.51 5.221-.156 7-2a19.048 19.048 0 0 0 6-1c1.239.442 2.239 1.109 3 2Z"/><path style="opacity:1" fill="#969696" d="M131.5 155.5v3c-1.779 1.844-4.112 2.51-7 2a168.522 168.522 0 0 1 6-2 31.147 31.147 0 0 1-2-2 5.727 5.727 0 0 0 3-1Z"/><path style="opacity:1" fill="#fafafa" d="M74.5 161.5c1.282 1.208 1.282 2.542 0 4-1.126-1.308-1.126-2.642 0-4Z"/><path style="opacity:1" fill="#434343" d="M310.5 142.5c-.313 3.542.021 6.875 1 10-.888 2.554-1.221 5.221-1 8a96.873 96.873 0 0 1 16-1c-.04 2.925.793 5.591 2.5 8 8.105 4.866 12.938 2.533 14.5-7l16 3c-3.409 14.065-12.409 21.065-27 21-11.763-.59-19.263-6.59-22.5-18a87.062 87.062 0 0 0-1.5 22 176.147 176.147 0 0 0 20 1v18h-21v6c4.662.462 9.329.962 14 1.5 1.301 1.616 1.301 3.116 0 4.5.131-.876-.202-1.543-1-2-11.885 3.246-22.385.913-31.5-7-.183 2.865-.683 5.531-1.5 8a231.402 231.402 0 0 0 .5-32 165.629 165.629 0 0 1-7.5-14 18.991 18.991 0 0 0 8-1.5 74.548 74.548 0 0 1 21-9.5c-.323-6.522.01-12.855 1-19Z"/><path style="opacity:1" fill="#9b9b9b" d="M87.5 161.5c-1.583 2.008-2.583 4.341-3 7v-8c1.291-.237 2.291.096 3 1Z"/><path style="opacity:1" fill="#444" d="M381.5 162.5a219.403 219.403 0 0 1 2.5 6c1.757.619 2.924 1.786 3.5 3.5-3.093 13.261-9.593 15.094-19.5 5.5a43.087 43.087 0 0 1-4.5-13c5.344.166 10.677-.001 16-.5.916-.278 1.582-.778 2-1.5Z"/><path style="opacity:1" fill="#545454" d="M124.5 166.5c2.559-.302 4.893.032 7 1a18.453 18.453 0 0 0-6 .5c5.001 2.594 5.001 5.427 0 8.5-1.667-1-3-2.333-4-4a12.805 12.805 0 0 0 3-6Z"/><path style="opacity:1" fill="#525252" d="M144.5 168.5h2c4.042 2.95 3.709 5.616-1 8-4.709-2.384-5.042-5.05-1-8Z"/><path style="opacity:1" fill="#858585" d="m148.5 166.5-2 2h-2c-1.068-.934-2.401-1.268-4-1 .306 2.885-.027 5.552-1 8v-9h9Z"/><path style="opacity:.956" fill="#949494" d="M54.5 170.5c6.243 13.199 16.41 17.532 30.5 13a64.318 64.318 0 0 0 12.5 4c3.065-.471 5.898-1.471 8.5-3a61.04 61.04 0 0 1 7.5 2 136.98 136.98 0 0 1-15 13 73.207 73.207 0 0 1-13-4c-20.994 4.686-31.327-3.647-31-25Z"/><path style="opacity:1" fill="#444" d="M500.5 205.5a18.453 18.453 0 0 0-.5-6 7.293 7.293 0 0 0-2 3 212.864 212.864 0 0 1-8.5 37 61.653 61.653 0 0 1-15 3c-4.639.336-8.639-.998-12-4-.46-7.91-3.96-14.577-10.5-20-.079 2.236-.579 3.57-1.5 4 1.502-20.094 12.169-28.094 32-24 .168-7.352.668-14.685 1.5-22 5.75-1.141 11.584-1.307 17.5-.5a23.256 23.256 0 0 1 1 6.5 364.623 364.623 0 0 1-2 23Z"/><path style="opacity:.889" fill="#9c9c9c" d="M398.5 177.5a51.569 51.569 0 0 1 1 7c-1.902 1.011-3.902 1.178-6 .5a26.793 26.793 0 0 0 3-6.5c.457-.798 1.124-1.131 2-1Z"/><path style="opacity:.933" fill="#959595" d="M545.5 181.5c1.508 16.933-6.158 23.766-23 20.5a32.005 32.005 0 0 1-7.5-5.5 164.613 164.613 0 0 0-2.5 25c-1.207-12.895-.707-25.895 1.5-39 10.965 12.119 21.465 11.786 31.5-1Z"/><path style="opacity:1" fill="#323232" d="M225.5 182.5c5-1 7 1 6 6h-5l-1-6Z"/><path style="opacity:1" fill="#2b2b2b" d="M234.5 182.5c5.214 1.447 5.881 3.78 2 7-4.026-1.656-4.693-3.99-2-7Z"/><path style="opacity:1" fill="#2d2d2d" d="M134.5 184.5c7.664-.834 11.164 2.5 10.5 10-4.717 6.652-9.383 6.652-14 0-.667-2-.667-4 0-6a19.552 19.552 0 0 0 3.5-4Z"/><path style="opacity:1" fill="#2b2b2b" d="M213.5 185.5c2.925-.04 5.591.793 8 2.5 1.829 1.113 2.663 2.613 2.5 4.5-2.469 2.533-5.302 4.033-8.5 4.5a714.756 714.756 0 0 1-7-6.5 29.937 29.937 0 0 1 5-5Z"/><path style="opacity:1" fill="#efefef" d="M135.5 189.5c3.638-.763 5.138.57 4.5 4-3.669 1.509-5.169.176-4.5-4Z"/><path style="opacity:1" fill="#2e2e2e" d="M135.5 202.5c-.774.647-1.774.98-3 1-6.011-.419-11.677-1.752-17-4 1.072-2.071 2.739-3.405 5-4 5.413 1.541 10.413 3.874 15 7Z"/><path style="opacity:1" fill="#4f4f4f" d="M272.5 195.5c5-1 7 1 6 6h-5l-1-6Z"/><path style="opacity:1" fill="#535353" d="M281.5 195.5c4.317 1.054 5.317 3.221 3 6.5-2.822.699-4.488-.468-5-3.5a185.977 185.977 0 0 0 2-3Z"/><path style="opacity:1" fill="#4d4d4d" d="M411.5 207.5v-6l-18-1v-4c6.009-.166 12.009.001 18 .5 1.32 3.601 1.32 7.101 0 10.5Z"/><path style="opacity:1" fill="#434343" d="M204.5 194.5c5.076 1.412 8.076 4.745 9 10a29.82 29.82 0 0 0-8.5 3 33.688 33.688 0 0 1-6.5-9 525.082 525.082 0 0 0 6-4Z"/><path style="opacity:1" fill="#4e4e4e" d="M379.5 201.5c-5.681.135-11.348.468-17 1v11c-1.15-4.816-1.316-9.816-.5-15 5.672-1.682 11.506-2.349 17.5-2v5Z"/><path style="opacity:1" fill="#252525" d="M185.5 198.5c-9.159 3.809-18.825 5.809-29 6v-6h29Z"/><path style="opacity:1" fill="#414141" d="M185.5 198.5h4v10h-33v-4c10.175-.191 19.841-2.191 29-6Z"/><path style="opacity:1" fill="#282828" d="M273.5 218.5c-.47 1.193-1.47 1.86-3 2-2.012-.34-4.012-.673-6-1a31.147 31.147 0 0 1-2-2c-.607.124-.94.457-1 1-3.659.351-6.659-.649-9-3a5.576 5.576 0 0 1 1-3c-2.621-.971-4.954-2.304-7-4a43.725 43.725 0 0 1 3-5.5 31.6 31.6 0 0 1 8 .5c-.209-2.214.624-3.881 2.5-5a31.625 31.625 0 0 0 7.5 2 21.028 21.028 0 0 1-2 7c4.273 2.591 6.939 6.257 8 11Z"/><path style="opacity:1" fill="#272727" d="M500.5 205.5a90.896 90.896 0 0 0 1.5 22 25.513 25.513 0 0 0 4.5 4 115.45 115.45 0 0 0-5 11c-4.759 1.755-8.759.755-12-3a212.864 212.864 0 0 0 8.5-37 7.293 7.293 0 0 1 2-3c.495 1.973.662 3.973.5 6Z"/><path style="opacity:1" fill="#464646" d="M115.5 199.5c5.323 2.248 10.989 3.581 17 4 1.226-.02 2.226-.353 3-1a70.683 70.683 0 0 1 14 10.5 89.809 89.809 0 0 0-5 7.5 337.406 337.406 0 0 0-21-13 52.108 52.108 0 0 1-8 5.5c-1.444.781-2.777.614-4-.5-2.521-1.76-3.354-4.093-2.5-7a54.53 54.53 0 0 1 6.5-6Z"/><path style="opacity:1" fill="#282828" d="M235.5 210.5c-4.844.064-9.178-1.269-13-4l10-5c3.338 1.68 4.838 4.347 4.5 8-.383.556-.883.889-1.5 1Z"/><path style="opacity:1" fill="#252525" d="M379.5 201.5a177.566 177.566 0 0 1 1.5 19c.612 2.615 2.112 4.281 4.5 5 .763.768 1.763 1.268 3 1.5a91.62 91.62 0 0 1-20 9.5c-5.336 2.446-11.336 4.446-18 6 1.665-9.158-2.001-13.325-11-12.5-4.655 2.897-6.155 7.063-4.5 12.5l1.5 3c-5.761 1.557-11.761 2.224-18 2a468.35 468.35 0 0 0-2-16 34.301 34.301 0 0 0-11-1v14c-.934 1.068-1.268 2.401-1 4a60.468 60.468 0 0 1-16-7c-.997-6.634-1.33-13.3-1-20v-3c.817-2.469 1.317-5.135 1.5-8 9.115 7.913 19.615 10.246 31.5 7 .798.457 1.131 1.124 1 2a12.93 12.93 0 0 0 .5 5c7.023-8.229 15.856-11.063 26.5-8.5 5.312 1.072 9.812 3.572 13.5 7.5.498-3.317.665-6.65.5-10v-11a242.945 242.945 0 0 1 17-1Z"/><path style="opacity:1" fill="#262626" d="m393.5 200.5 18 1v15c10.465-1.607 20.798-1.107 31 1.5a46.46 46.46 0 0 1 8 4.5c.921-.43 1.421-1.764 1.5-4 6.54 5.423 10.04 12.09 10.5 20a5.727 5.727 0 0 1-3-1c-.283-.789-.783-1.456-1.5-2-.808 3.527-.641 6.86.5 10 .727 3.954 2.394 7.454 5 10.5-11.016 10.633-19.183 8.466-24.5-6.5l-1-13c-2.169-3.69-5.336-5.357-9.5-5v12a117.535 117.535 0 0 0-16-15.5c-6.284-3.115-12.951-4.282-20-3.5.001-8.017.334-16.017 1-24Z"/><path style="opacity:1" fill="#464646" d="M271.5 202.5a42.411 42.411 0 0 1 12 4c.999 3.381.166 6.381-2.5 9l-11-6c-.609-2.565-.109-4.899 1.5-7Z"/><path style="opacity:1" fill="#454545" d="M222.5 206.5c3.822 2.731 8.156 4.064 13 4-7.594 6.298-16.261 10.131-26 11.5a47.02 47.02 0 0 0-3.5-5.5c-.749-1.135-.583-2.135.5-3 5.359-2.348 10.693-4.681 16-7Z"/><path style="opacity:1" fill="#f3f3f3" d="M473.5 211.5c2.982-.396 5.649.271 8 2a49.87 49.87 0 0 1 1 14c-8.942 2.55-13.442-.783-13.5-10a40.775 40.775 0 0 1 4.5-6Z"/><path style="opacity:.97" fill="#989898" d="M97.5 213.5c3.139 3.97 6.805 7.47 11 10.5 5.894 1.255 11.228.089 16-3.5l10 7a33.033 33.033 0 0 1-8 5 37.143 37.143 0 0 0-8-2.5l-17-1a25.136 25.136 0 0 1-4-4.5c-1.333-3.667-1.333-7.333 0-11Z"/><path style="opacity:1" fill="#494949" d="M252.5 215.5c2.341 2.351 5.341 3.351 9 3a59.562 59.562 0 0 1-5 9c-3.289 1.023-6.289.356-9-2a716.566 716.566 0 0 1 5-10Z"/><path style="opacity:1" fill="#484848" d="M273.5 218.5c1.264 7.493-1.403 13.493-8 18a46.607 46.607 0 0 1-6-5.5c3.449-3.065 5.116-6.898 5-11.5 1.988.327 3.988.66 6 1 1.53-.14 2.53-.807 3-2Z"/><path style="opacity:1" fill="#434343" d="M392.5 224.5c7.049-.782 13.716.385 20 3.5a117.535 117.535 0 0 1 16 15.5 124.865 124.865 0 0 0-1 17h-18v-20c-11.347.198-22.68.365-34 .5-2.739-1.026-5.072-2.526-7-4.5a91.62 91.62 0 0 0 20-9.5c-1.237-.232-2.237-.732-3-1.5a21.435 21.435 0 0 0 7-1Z"/><path style="opacity:1" fill="#f8f8f8" d="M350.5 242.5c-3.567 5.422-8.233 6.422-14 3l-1.5-3c-1.655-5.437-.155-9.603 4.5-12.5 8.999-.825 12.665 3.342 11 12.5Z"/><path style="opacity:1" fill="#434343" d="M92.5 236.5c-8.477-.06-16.81.94-25 3 .295 2.235-.039 4.235-1 6v-11a313 313 0 0 1 25 .5c.556.383.89.883 1 1.5Z"/><path style="opacity:1" fill="#282828" d="M207.5 234.5h7c-.116 3.41 1.55 4.744 5 4v5c-5.333.333-5.333.667 0 1v6h-3v3h5v6c-2.235-.295-4.235.039-6 1-2.45.202-4.783-.131-7-1-.304-2.296-1.304-2.629-3-1-2.198.38-3.865-.287-5-2 2.003-2.482 4.669-3.482 8-3v-3c-1.419-.951-3.085-1.284-5-1v-4c1.599.268 2.932-.066 4-1-2.488-1.888-5.488-2.555-9-2v-6h3c1.765.961 3.765 1.295 6 1v-3Z"/><path style="opacity:1" fill="#848484" d="M207.5 234.5v3c-2.235.295-4.235-.039-6-1 2.386.241 4.386-.425 6-2Z"/><path style="opacity:1" fill="#484848" d="M275.5 246.5c.086-.996-.248-1.829-1-2.5a18.453 18.453 0 0 0-6-.5 47.404 47.404 0 0 1 4.5-8c2.28.586 4.447 1.42 6.5 2.5a101.318 101.318 0 0 1-4 8.5Z"/><path style="opacity:1" fill="#474747" d="M150.5 246.5a76.4 76.4 0 0 0-13 2c-1.28-1.431-2.947-2.098-5-2a9.108 9.108 0 0 1 1-5 42.123 42.123 0 0 1 14-4c-1.976 4.074-.976 7.074 3 9Z"/><path style="opacity:1" fill="#2c2c2c" d="M189.5 256.5a41.541 41.541 0 0 1-8 1c.306-2.885-.027-5.552-1-8a119.535 119.535 0 0 1-1.5-12c2.401-1.102 4.901-1.269 7.5-.5 3.351 6.212 4.351 12.712 3 19.5Z"/><path style="opacity:1" fill="#444" d="M368.5 236.5c-3.324 18.792-14.657 27.292-34 25.5-7.698-2.33-13.032-7.163-16-14.5 6.239.224 12.239-.443 18-2 5.767 3.422 10.433 2.422 14-3 6.664-1.554 12.664-3.554 18-6Z"/><path style="opacity:.941" fill="#939393" d="M516.5 237.5c1.336 4.01 1.17 8.01-.5 12-4.205 16.767-14.205 21.434-30 14a32.157 32.157 0 0 1-11.5 2c.289 3.149-.211 6.149-1.5 9-4.748 4.954-10.248 8.787-16.5 11.5-7.659.918-14.326-1.249-20-6.5a17.335 17.335 0 0 1-7 3.5c-5.991.499-11.991.666-18 .5.31 3.213-.023 6.213-1 9v-21c6.342.166 12.675 0 19-.5a17.335 17.335 0 0 0 7-3.5 104.61 104.61 0 0 0 12 6.5c3.736.61 7.403.277 11-1a86.276 86.276 0 0 0 12.5-9.5 27.624 27.624 0 0 0 2.5-10 115.659 115.659 0 0 0 11.5-2c2.54.685 5.04 1.519 7.5 2.5 7.137 2.004 12.97.171 17.5-5.5 1.352-4.038 3.186-7.705 5.5-11Z"/><path style="opacity:1" fill="#282828" d="M92.5 236.5c1.178 4.521 1.178 9.188 0 14h-7c.31-3.213-.023-6.213-1-9-3.187-1.306-6.52-1.306-10 0a13.115 13.115 0 0 0 7 1v3h-3c-1.419-.951-3.085-1.284-5-1v3c1.915.284 3.581-.049 5-1h4v3c-3.213-.31-6.213.023-9 1h-7v-5c.961-1.765 1.295-3.765 1-6a99.197 99.197 0 0 1 25-3Z"/><path style="opacity:1" fill="#424242" d="M150.5 239.5c3.41-.043 6.743.457 10 1.5 1.292 2.925.458 5.092-2.5 6.5a34.367 34.367 0 0 1-7.5-3c-1.166-1.667-1.166-3.334 0-5Z"/><path style="opacity:1" fill="#2c2c2c" d="M242.5 252.5c-1.779 1.844-4.112 2.51-7 2a5.576 5.576 0 0 0-1-3 9.86 9.86 0 0 0-6-1v-6h5v-6h8v5h6v-6h8v6h4v6h-5v4h-8v-3c-1.983-.343-3.317.324-4 2Z"/><path style="opacity:1" fill="#818181" d="M459.5 237.5c-.973 2.448-1.306 5.115-1 8-1.141-3.14-1.308-6.473-.5-10 .717.544 1.217 1.211 1.5 2Z"/><path style="opacity:1" fill="#e8e8e8" d="M84.5 241.5v11c-4.149.58-7.816-.086-11-2 2.787-.977 5.787-1.31 9-1v-3h-4c-5.333-.333-5.333-.667 0-1h3v-3a13.115 13.115 0 0 1-7-1c3.48-1.306 6.813-1.306 10 0Z"/><path style="opacity:1" fill="#4b4b4b" d="M125.5 253.5v-4c-2.914-.305-5.581-.305-8 0-3.687-1.843-7.687-2.51-12-2 1.452-.802 3.118-1.302 5-1.5-3.22-2.751-6.886-4.251-11-4.5 7.297-2.82 14.63-2.653 22 .5 4.737 2.748 6.07 6.582 4 11.5Z"/><path style="opacity:1" fill="#262626" d="M99.5 241.5c4.114.249 7.78 1.749 11 4.5-1.882.198-3.548.698-5 1.5a9.108 9.108 0 0 0-5 1 13.118 13.118 0 0 1-1-7Z"/><path style="opacity:1" fill="#2c2c2c" d="M167.5 241.5h8a40.914 40.914 0 0 1-.5 9c-2.75.791-5.583.791-8.5 0a29.23 29.23 0 0 1 1-9Z"/><path style="opacity:1" fill="#4a4a4a" d="M287.5 221.5c-.33 6.7.003 13.366 1 20a60.468 60.468 0 0 0 16 7c-.268-1.599.066-2.932 1-4v8h-19c-.328-10.514.006-20.847 1-31Z"/><path style="opacity:1" fill="#2a2a2a" d="M268.5 243.5a18.453 18.453 0 0 1 6 .5c.752.671 1.086 1.504 1 2.5-.718 1.637-.884 3.303-.5 5 4.898-2.058 8.398-.725 10.5 4-1.938 1.663-4.272 2.329-7 2-4.258-.205-7.258 1.628-9 5.5-2.31.497-4.643.663-7 .5a69.324 69.324 0 0 1 6-20Z"/><path style="opacity:1" fill="#747474" d="M78.5 245.5c-5.333.333-5.333.667 0 1-1.419.951-3.085 1.284-5 1v-3c1.915-.284 3.581.049 5 1Z"/><path style="opacity:1" fill="#2b2b2b" d="M150.5 246.5c4.714 4.449 5.214 9.449 1.5 15-2.895 4.135-5.395 3.968-7.5-.5 2.292-3.435 2.459-6.935.5-10.5a104.416 104.416 0 0 1-4.5 8.5c-1.941.743-3.774.576-5.5-.5.098-3.472.932-6.805 2.5-10a76.4 76.4 0 0 1 13-2Z"/><path style="opacity:1" fill="#5d5d5d" d="M207.5 244.5c-1.068.934-2.401 1.268-4 1v4c1.915-.284 3.581.049 5 1h-6v-6h5Z"/><path style="opacity:1" fill="#272727" d="M125.5 253.5c-.475 2.284-1.475 4.284-3 6-2.382-.851-4.382-2.184-6-4a19.22 19.22 0 0 0 1-6c2.419-.305 5.086-.305 8 0v4Z"/><path style="opacity:1" fill="#464646" d="M84.5 241.5c.977 2.787 1.31 5.787 1 9h7c.295 2.235-.039 4.235-1 6h-4v3c1.915.284 3.581-.049 5-1h3v7h-15v-9c-2.541-.351-4.208-.018-5 1 .64.982 1.308 1.982 2 3a123.516 123.516 0 0 1-8.5 6c-2.296-1.128-4.13-2.795-5.5-5l7-4.5a8.43 8.43 0 0 0-4-.5v-6h7c3.184 1.914 6.851 2.58 11 2v-11Z"/><path style="opacity:1" fill="#4d4d4d" d="M380.5 252.5c3.35-.165 6.683.002 10 .5a29.86 29.86 0 0 1 3 7c2.646.497 5.313.664 8 .5v3c-10.339.166-20.672 0-31-.5-1.333-.667-1.333-1.333 0-2a32.462 32.462 0 0 1 8-.5c.06-2.841.726-5.507 2-8Z"/><path style="opacity:1" fill="#4b4b4b" d="M242.5 252.5c1.711 3.574 4.045 6.741 7 9.5-.792 1.96-2.125 3.46-4 4.5-5.179-2.508-8.512-6.508-10-12 2.888.51 5.221-.156 7-2Z"/><path style="opacity:1" fill="#494949" d="M285.5 255.5c1.879.841 3.879 1.175 6 1 2.311 5.704.311 8.371-6 8l-3-.5a98.534 98.534 0 0 1-4-6.5c2.728.329 5.062-.337 7-2Z"/><path style="opacity:1" fill="#aaa" d="M80.5 260.5c-.904-.709-1.237-1.709-1-3h-4c.792-1.018 2.459-1.351 5-1v4Z"/><path style="opacity:1" fill="#4b4b4b" d="M116.5 255.5c1.618 1.816 3.618 3.149 6 4-3.414 5.834-7.08 6.167-11 1a17.858 17.858 0 0 1 5-5Z"/><path style="opacity:1" fill="#515151" d="M180.5 249.5c.973 2.448 1.306 5.115 1 8a41.541 41.541 0 0 0 8-1 18.621 18.621 0 0 1-3 8.5c-2.044.048-4.044-.452-6-1.5a158.622 158.622 0 0 1 0-14Z"/><path style="opacity:1" fill="#e9e9e9" d="M382.5 255.5a18.453 18.453 0 0 1 6 .5c.88 1.356 1.214 2.856 1 4.5h-8a20.69 20.69 0 0 1 1-5Z"/><path style="opacity:1" fill="#909090" d="M91.5 256.5c-.763.768-1.763 1.268-3 1.5a8.43 8.43 0 0 0 4 .5c-1.419.951-3.085 1.284-5 1v-3h4Z"/><path style="opacity:1" fill="#494949" d="M200.5 256.5c1.135 1.713 2.802 2.38 5 2 .304 2.296 1.304 2.629 3 1 2.217.869 4.55 1.202 7 1-2.992 4.757-7.325 6.257-13 4.5-4.11-2.258-4.777-5.092-2-8.5Z"/><path style="opacity:1" fill="#e6e6e6" d="M208.5 259.5c-1.696 1.629-2.696 1.296-3-1 1.696-1.629 2.696-1.296 3 1Z"/><path style="opacity:.95" fill="#939393" d="M410.5 292.5a61.522 61.522 0 0 1-1.5 17c-2.315 4.317-5.815 7.15-10.5 8.5-8.333.667-16.667.667-25 0-5.627-.957-9.46-4.124-11.5-9.5a240.19 240.19 0 0 1-2.5-27c-17.701 7.322-33.368 4.322-47-9-2.528 2.374-5.528 3.374-9 3-1.072 5.573-4.405 9.073-10 10.5-6.101 2.287-11.935 1.787-17.5-1.5-6.777 2.749-13.444 2.416-20-1-5.827 6.419-12.327 7.252-19.5 2.5a34.706 34.706 0 0 1-7.5-6.5 132.096 132.096 0 0 1-17.5 8.5c-6.395 1.284-12.229.117-17.5-3.5-7.677 4.026-15.177 3.526-22.5-1.5-2.152-2.424-3.485-5.257-4-8.5a11.38 11.38 0 0 0-2.5-2c-5.883 15.851-15.716 19.017-29.5 9.5a66.87 66.87 0 0 1-5.5-1.5c-5.806 5.826-12.639 7.659-20.5 5.5a11.532 11.532 0 0 1-4.5-3.5 9.454 9.454 0 0 1-1.5 2.5c-8.726 3.525-17.726 4.359-27 2.5-11.163 3.502-18.997-.164-23.5-11-.736-3.092-.57-6.092.5-9 3.13 2.629 6.13 5.462 9 8.5 4.533 1.833 9.033 1.666 13.5-.5a67.627 67.627 0 0 0 19.5.5c4.034-.617 7.367-2.451 10-5.5 2.558 3.146 5.892 4.813 10 5 5.583-.875 10.416-3.209 14.5-7l7.5 2.5c11.904 7.907 20.57 5.073 26-8.5 1.545-.952 3.212-1.285 5-1-.202 2.489.298 4.823 1.5 7 7.105 7.956 15.105 9.289 24 4 1.8 1.817 3.966 2.984 6.5 3.5a38.186 38.186 0 0 0 15-1 63.543 63.543 0 0 1 14-7.5 85.155 85.155 0 0 0 10 8.5c6.464 1.652 11.964.152 16.5-4.5 1.491 1.504 3.324 2.337 5.5 2.5 4.86.968 9.526.468 14-1.5 4.019 2.55 8.352 3.383 13 2.5 7.466-.544 12.466-4.211 15-11 3.432-.116 6.432-1.283 9-3.5 13.701 14.005 29.368 16.672 47 8a3206.852 3206.852 0 0 1 3.5 30c1.907 3.539 4.74 6.039 8.5 7.5 10.061.895 20.061.562 30-1 4.863-2.917 7.863-7.083 9-12.5Z"/><path style="opacity:1" fill="#525252" d="M371.5 265.5h3a256.016 256.016 0 0 0 1 27 108.41 108.41 0 0 0 20.5-1l1-25a3.647 3.647 0 0 1 1.5-1 122.079 122.079 0 0 1 .5 27l-2.5 2.5a121.19 121.19 0 0 1-22 0l-1.5-1.5a160.59 160.59 0 0 1-1.5-28Z"/><path style="opacity:1" fill="#646464" d="M379.5 269.5h4v17h-4v-17Z"/><path style="opacity:1" fill="#4b4b4b" d="M388.5 269.5h3v17h-3v-17Z"/></svg>