<?xml version="1.0" encoding="UTF-8"?>
<!DOCTYPE svg PUBLIC "-//W3C//DTD SVG 1.1//EN" "http://www.w3.org/Graphics/SVG/1.1/DTD/svg11.dtd">
<svg xmlns="http://www.w3.org/2000/svg" version="1.1" width="24px" height="24px" style="shape-rendering:geometricPrecision; text-rendering:geometricPrecision; image-rendering:optimizeQuality; fill-rule:evenodd; clip-rule:evenodd" xmlns:xlink="http://www.w3.org/1999/xlink">
<g><path style="opacity:1" fill="#fbfbfb" d="M -0.5,-0.5 C 7.5,-0.5 15.5,-0.5 23.5,-0.5C 23.5,7.5 23.5,15.5 23.5,23.5C 15.5,23.5 7.5,23.5 -0.5,23.5C -0.5,15.5 -0.5,7.5 -0.5,-0.5 Z"/></g>
<g><path style="opacity:1" fill="#7d7d7d" d="M 7.5,3.5 C 8.37644,3.36912 9.04311,3.70245 9.5,4.5C 7.95873,6.20404 6.6254,8.03738 5.5,10C 7.45958,11.5893 9.12625,13.4226 10.5,15.5C 8.99326,19.8351 6.49326,20.5018 3,17.5C 1.45433,11.794 2.95433,7.12734 7.5,3.5 Z"/></g>
<g><path style="opacity:1" fill="#7e7e7e" d="M 19.5,3.5 C 20.0431,3.55999 20.3764,3.89333 20.5,4.5C 19.065,5.9285 18.065,7.59517 17.5,9.5C 18.8333,11.5 20.1667,13.5 21.5,15.5C 20.0501,19.8765 17.5501,20.5432 14,17.5C 12.3488,11.3602 14.1822,6.69356 19.5,3.5 Z"/></g>
</svg>
