<?xml version="1.0" encoding="UTF-8"?>
<svg xmlns="http://www.w3.org/2000/svg" xmlns:xlink="http://www.w3.org/1999/xlink" width="24px" height="24px" viewBox="0 0 24 24" version="1.1">
<g id="surface1">
<path style=" stroke:none;fill-rule:nonzero;fill:rgb(29.411766%,29.411766%,29.411766%);fill-opacity:1;" d="M 12 0 C 5.371094 0 0 5.371094 0 12 C 0 18.628906 5.371094 24 12 24 C 18.628906 24 24 18.628906 24 12 C 24 5.371094 18.628906 0 12 0 Z M 15.648438 16.558594 C 15.492188 16.71875 15.253906 16.789062 15.027344 16.714844 C 14.707031 16.617188 14.527344 16.277344 14.628906 15.953125 C 15.152344 14.832031 15.542969 13.242188 15.542969 13.242188 C 13.890625 13.242188 12.550781 11.902344 12.550781 10.25 C 12.550781 8.59375 13.890625 7.253906 15.542969 7.253906 C 17.199219 7.253906 18.539062 8.59375 18.539062 10.25 C 18.539062 11.609375 17.726562 14.285156 15.648438 16.558594 Z M 8.558594 16.558594 C 8.402344 16.71875 8.164062 16.789062 7.9375 16.714844 C 7.613281 16.617188 7.4375 16.277344 7.535156 15.953125 C 8.058594 14.832031 8.453125 13.242188 8.453125 13.242188 C 6.800781 13.242188 5.460938 11.902344 5.460938 10.25 C 5.460938 8.59375 6.800781 7.253906 8.453125 7.253906 C 10.109375 7.253906 11.449219 8.59375 11.449219 10.25 C 11.449219 11.609375 10.632812 14.285156 8.558594 16.558594 Z M 8.558594 16.558594 "/>
</g>
</svg>
