<?xml version="1.0" encoding="UTF-8" standalone="no"?><!DOCTYPE svg PUBLIC "-//W3C//DTD SVG 1.1//EN" "http://www.w3.org/Graphics/SVG/1.1/DTD/svg11.dtd"><svg width="100%" height="100%" viewBox="0 0 24 24" version="1.1" xmlns="http://www.w3.org/2000/svg" xmlns:xlink="http://www.w3.org/1999/xlink" xml:space="preserve" xmlns:serif="http://www.serif.com/" style="fill-rule:evenodd;clip-rule:evenodd;stroke-linejoin:round;stroke-miterlimit:2;"><g id="surface1"><path d="M12,24c6.629,0 12,-5.371 12,-12c0,-6.629 -5.371,-12 -12,-12c-6.629,0 -12,5.371 -12,12c0,6.629 5.371,12 12,12Zm-3.648,-16.559c0.156,-0.16 0.394,-0.23 0.621,-0.156c0.32,0.098 0.5,0.438 0.398,0.762c-0.523,1.121 -0.914,2.711 -0.914,2.711c1.652,0 2.992,1.34 2.992,2.992c0,1.656 -1.34,2.996 -2.992,2.996c-1.656,0 -2.996,-1.34 -2.996,-2.996c0,-1.359 0.812,-4.035 2.891,-6.309Zm7.089,0c0.157,-0.16 0.395,-0.23 0.621,-0.156c0.325,0.098 0.5,0.438 0.403,0.762c-0.524,1.121 -0.918,2.711 -0.918,2.711c1.652,0 2.992,1.34 2.992,2.992c0,1.656 -1.34,2.996 -2.992,2.996c-1.656,0 -2.996,-1.34 -2.996,-2.996c0,-1.359 0.816,-4.035 2.89,-6.309Z" style="fill:#4b4b4b;fill-rule:nonzero;"/></g></svg>