<?xml version="1.0" encoding="UTF-8" standalone="no"?>
<!DOCTYPE svg PUBLIC "-//W3C//DTD SVG 1.1//EN" "http://www.w3.org/Graphics/SVG/1.1/DTD/svg11.dtd">
<svg width="100%" height="100%" viewBox="0 0 24 24" version="1.1" xmlns="http://www.w3.org/2000/svg" xmlns:xlink="http://www.w3.org/1999/xlink" xml:space="preserve" xmlns:serif="http://www.serif.com/" style="fill-rule:evenodd;clip-rule:evenodd;stroke-linejoin:round;stroke-miterlimit:2;">
    <g id="surface1">
        <path d="M12,24C18.629,24 24,18.629 24,12C24,5.371 18.629,0 12,0C5.371,0 0,5.371 0,12C0,18.629 5.371,24 12,24ZM8.352,7.441C8.508,7.281 8.746,7.211 8.973,7.285C9.293,7.383 9.473,7.723 9.371,8.047C8.848,9.168 8.457,10.758 8.457,10.758C10.109,10.758 11.449,12.098 11.449,13.75C11.449,15.406 10.109,16.746 8.457,16.746C6.801,16.746 5.461,15.406 5.461,13.75C5.461,12.391 6.273,9.715 8.352,7.441ZM15.441,7.441C15.598,7.281 15.836,7.211 16.062,7.285C16.387,7.383 16.562,7.723 16.465,8.047C15.941,9.168 15.547,10.758 15.547,10.758C17.199,10.758 18.539,12.098 18.539,13.75C18.539,15.406 17.199,16.746 15.547,16.746C13.891,16.746 12.551,15.406 12.551,13.75C12.551,12.391 13.367,9.715 15.441,7.441Z" style="fill:rgb(75,75,75);fill-rule:nonzero;"/>
    </g>
</svg>
