<svg xmlns="http://www.w3.org/2000/svg" width="512" height="512" style="shape-rendering:geometricPrecision;text-rendering:geometricPrecision;image-rendering:optimizeQuality;fill-rule:evenodd;clip-rule:evenodd"><path style="opacity:1" fill="#e17b80" d="M-.5-.5h512v223l-76-75v-9h-359c-1 78.165-1.333 156.498-1 235h8l137 138H-.5V-.5Z"/><path style="opacity:1" fill="#fefbfb" d="M178.5 62.5v9a128.43 128.43 0 0 0-16 .5l-1 1c.948.483 1.948.65 3 .5 1.673.843 2.84 2.176 3.5 4 1.011-.837 2.178-1.17 3.5-1v-3h8c.226 5.452-2.108 9.452-7 12 1.198 3.699 3.365 6.699 6.5 9 .483.948.649 1.948.5 3-4.66-.248-8.493-2.248-11.5-6a14.29 14.29 0 0 1-2.5 6.5c-5.169 1.056-10.002.222-14.5-2.5-1.138.49-2.305.823-3.5 1-2.748.098-3.414-.902-2-3 1.474-.936 2.474-2.27 3-4 .543-.06.876-.393 1-1-2.155-.501-3.822-1.501-5-3 4.623-2.957 4.623-4.957 0-6a5.727 5.727 0 0 1 1-3c6.26-2.186 6.26-3.52 0-4a72.368 72.368 0 0 0-.5-12c-1.039.744-1.539 1.744-1.5 3v35h-9v-28h-3c2.887-6.334 4.554-13 5-20h10c-.156 5.813.511 6.146 2 1l5-1a135.58 135.58 0 0 0 22 2.5c1.435 2.267 1.102 4.267-1 6 1.824.66 3.157 1.827 4 3.5Z"/><path style="opacity:1" fill="#fdf7f7" d="M116.5 90.5h-26v-31h9v-4a86.739 86.739 0 0 0-18 1c-.929-1.189-1.262-2.522-1-4 15.362.27 30.695-.064 46-1v4h-19v4c3.185-.48 6.019.186 8.5 2 .5 9.66.666 19.328.5 29Z"/><path style="opacity:1" fill="#fefafb" d="M226.5 60.5c-7.187-.325-14.187.009-21 1-.951 1.419-1.284 3.085-1 5 1.599.268 2.932-.066 4-1v-4c3.512-.554 6.512.112 9 2 .208 3.644 2.208 5.81 6 6.5a36.005 36.005 0 0 1 3.5 4.5c2.308 17.858-5.526 25.525-23.5 23a35.411 35.411 0 0 0 12.5-8c3.265-5.733 3.265-11.4 0-17-1.424 7.967-4.924 14.8-10.5 20.5-16.265 7.406-23.098 2.24-20.5-15.5 2.075-4.91 5.575-8.243 10.5-10 .968-2.107 1.302-4.44 1-7-2.559-.302-4.893.032-7 1-3.295 1.325-4.628-.009-4-4h11v-6h9v6c7.035.174 14.035-.16 21-1v4Z"/><path style="opacity:1" fill="#efbbbe" d="M246.5 51.5h-9v32h9c-3.125.98-6.458 1.313-10 1v-34c3.542-.313 6.875.02 10 1Z"/><path style="opacity:1" fill="#fefbfb" d="M246.5 51.5a18.452 18.452 0 0 0 .5 6c6.878-4.656 14.045-5.156 21.5-1.5 3.363 4.251 4.697 9.085 4 14.5.556 18.446-8.444 27.78-27 28v-3c8.906-1.738 14.406-7.071 16.5-16a64.218 64.218 0 0 0 0-16c-.466-4.814-2.966-6.981-7.5-6.5-3.062 1.06-5.562 2.894-7.5 5.5-.5 6.992-.666 13.992-.5 21h-9v-32h9Z"/><path style="opacity:1" fill="#fefafa" d="M305.5 50.5v8c3.213.31 6.213-.023 9-1a20.676 20.676 0 0 1 5-1v5h-13v7c3.439.247 6.772-.086 10-1 1.676.683 2.343 2.017 2 4h-13c-.313 3.542.021 6.875 1 10a33.834 33.834 0 0 1 13 8.5 29.733 29.733 0 0 1-5 7.5 45.408 45.408 0 0 0-8-8c-.682 4.266-3.015 7.099-7 8.5-5.926 1.11-11.592.444-17-2-5.922-7.205-4.588-12.871 4-17a60.94 60.94 0 0 1 11-.5v-7c-6.498-.418-12.832.248-19 2v-5h19v-7c-6.562-.478-12.896.189-19 2v-5h19v-8h8ZM334.5 52.5h9v13c4.202.317 8.202-.017 12-1v-12h9v13a46.845 46.845 0 0 0 9-2v5h-9a84.9 84.9 0 0 1-.5 13c-2.909 2.894-6.409 3.727-10.5 2.5-3.144-.919-4.144-2.752-3-5.5a9.107 9.107 0 0 0 5 1v-11h-12c-.166 7.34 0 14.674.5 22l1.5 1.5c8.994.5 17.994.666 27 .5v4c-10.672.166-21.339 0-32-.5a15.83 15.83 0 0 1-5.5-3.5c-.5-7.993-.666-15.993-.5-24a41.58 41.58 0 0 0-8 1v-4h8v-13Z"/><path style="opacity:1" fill="#fdf9f9" d="M392.5 51.5h10a65.07 65.07 0 0 1-4 17l1 2c5.443-2.93 10.61-2.596 15.5 1a235.527 235.527 0 0 1 2.5 19.5c3.71 1.224 6.377.058 8-3.5.825-.886 1.825-1.219 3-1-3.064 9.532-9.398 12.699-19 9.5a6.977 6.977 0 0 1-2.5-3.5l-1-19c-3.949-.708-7.282.625-10 4a220.918 220.918 0 0 0-4.5 20h-11a623.9 623.9 0 0 0 12-46Z"/><path style="opacity:1" fill="#e28085" d="M156.5 55.5c11.352-.739 11.852.595 1.5 4l-5.5-.5c1.593-.949 2.926-2.115 4-3.5Z"/><path style="opacity:1" fill="#eca8ac" d="M305.5 50.5c.968 2.107 1.302 4.44 1 7h8c-2.787.977-5.787 1.31-9 1v-8Z"/><path style="opacity:1" fill="#fefafa" d="M88.5 58.5c-.328 11.845.005 23.512 1 35h27c.995-11.488 1.328-23.155 1-35h8v38h-45v-38h8Z"/><path style="opacity:1" fill="#ecabaf" d="m88.5 58.5 2 1v31h26v1c-9.395-.638-18.395.029-27 2-.995-11.488-1.328-23.155-1-35Z"/><path style="opacity:1" fill="#efbabd" d="M205.5 61.5c6.813-.991 13.813-1.325 21-1a31.21 31.21 0 0 0-9 3c-2.488-1.888-5.488-2.554-9-2h-3Z"/><path style="opacity:1" fill="#e27f84" d="m145.5 76.5-2-13c-.039-1.256.461-2.256 1.5-3 .499 3.986.666 7.986.5 12 6.26.48 6.26 1.814 0 4Z"/><path style="opacity:1" fill="#eba8ab" d="M189.5 61.5c2.107-.968 4.441-1.302 7-1 .302 2.56-.032 4.893-1 7v-6h-6Z"/><path style="opacity:1" fill="#efb7ba" d="M205.5 61.5v4h3c-1.068.934-2.401 1.268-4 1-.284-1.915.049-3.581 1-5Z"/><path style="opacity:1" fill="#e17b80" d="M205.5 61.5h3v4h-3v-4Z"/><path style="opacity:1" fill="#e4888c" d="M166.5 62.5c1.322-.17 2.489.163 3.5 1 .495 1.973.662 3.973.5 6h-4v-7Z"/><path style="opacity:1" fill="#eba7ab" d="M97.5 63.5c1.287 1.371 1.954 3.205 2 5.5l-1 5.5a31.121 31.121 0 0 1-1-11Z"/><path style="opacity:1" fill="#e07b7f" d="M154.5 63.5h3v6h-3v-6Z"/><path style="opacity:1" fill="#eaa3a7" d="m143.5 63.5 2 13a5.727 5.727 0 0 0-1 3v6c1.178 1.499 2.845 2.499 5 3-.124.607-.457.94-1 1-1.068-.934-2.401-1.268-4-1-.284 1.915.049 3.581 1 5-1.414 2.098-.748 3.098 2 3-1.171.845-2.505 1.511-4 2v-35Z"/><path style="opacity:1" fill="#eaa1a4" d="M334.5 52.5v13h-8v4c-.951-1.419-1.284-3.085-1-5h8c-.317-4.202.017-8.202 1-12Z"/><path style="opacity:1" fill="#e99ca0" d="M343.5 52.5c.983 3.798 1.317 7.798 1 12h11c-3.798.983-7.798 1.317-12 1v-13Z"/><path style="opacity:1" fill="#efbdbf" d="M205.5 69.5c-.306 2.885.027 5.552 1 8l-1.5 3c-.81-3.858-.643-7.524.5-11Z"/><path style="opacity:1" fill="#e27f84" d="M205.5 69.5c.997-.03 1.664.47 2 1.5a15.892 15.892 0 0 0-1 6.5c-.973-2.448-1.306-5.115-1-8Z"/><path style="opacity:1" fill="#e99da1" d="M131.5 70.5h3v28a214.41 214.41 0 0 0-3-28Z"/><path style="opacity:1" fill="#f5d1d3" d="M178.5 62.5c.979 3.125 1.313 6.458 1 10-5.195-.32-10.195.013-15 1a4.932 4.932 0 0 1-3-.5l1-1a128.43 128.43 0 0 1 16-.5v-9Z"/><path style="opacity:1" fill="#ecaaad" d="M316.5 67.5c.709-.904 1.709-1.237 3-1v6h-13v9-9h13v-6c-1.291-.237-2.291.096-3 1Z"/><path style="opacity:1" fill="#e38387" d="M195.5 72.5c.823 3.477 1.323 7.144 1.5 11a18.78 18.78 0 0 0 5.5 4.5 17.712 17.712 0 0 1-5.5 4.5c-1.261-.26-2.261-.926-3-2-1.021-6.21-.521-12.21 1.5-18Z"/><path style="opacity:1" fill="#eba7ab" d="M97.5 76.5c1.294 1.548 1.96 3.548 2 6l-1 6a36.874 36.874 0 0 1-1-12Z"/><path style="opacity:1" fill="#efb6b8" d="M154.5 77.5c1.478-.262 2.811.071 4 1-1.574 1.13-3.241 1.297-5 .5.556-.383.889-.883 1-1.5Z"/><path style="opacity:1" fill="#e28084" d="M144.5 79.5c4.623 1.043 4.623 3.043 0 6v-6ZM291.5 82.5c4.423-1.075 6.423.592 6 5 .292 3.755-1.208 6.422-4.5 8-2.994-1.31-4.494-3.643-4.5-7 .128-2.455 1.128-4.455 3-6Z"/><path style="opacity:1" fill="#e3868a" d="M157.5 81.5c.951 1.419 1.284 3.085 1 5a18.437 18.437 0 0 1-6-.5c2.16-.996 3.827-2.496 5-4.5Z"/><path style="opacity:1" fill="#e17e83" d="M148.5 89.5c-.526 1.73-1.526 3.064-3 4-.951-1.419-1.284-3.085-1-5 1.599-.268 2.932.066 4 1Z"/><path style="opacity:1" fill="#e07b7f" d="M116.5 91.5v2h-27c8.605-1.971 17.605-2.638 27-2Z"/><path style="opacity:1" fill="#e58c90" d="M157.5 89.5c.951 1.419 1.284 3.085 1 5-1.175.219-2.175-.114-3-1l2-4Z"/><path style="opacity:1" fill="#fefefe" d="M76.5 138.5h179v22h-156v191h156v21h-179v-234Z"/><path style="opacity:1" fill="#dedad8" d="M255.5 138.5h180v9c.333 75.169-.001 150.169-1 225h-179v-21a6085.37 6085.37 0 0 0 156-1v-190h-156v-22Z"/><path style="opacity:1" fill="#c76d70" d="m435.5 147.5 76 75v289h-291l-137-138c117.168.333 234.168 0 351-1 .999-74.831 1.333-149.831 1-225Z"/><path style="opacity:1" fill="#b7ddca" d="M255.5 160.5v126a179.132 179.132 0 0 1-15 17 1556.175 1556.175 0 0 1-30-35.5c-12.071-8.738-24.738-9.738-38-3-5.833 4.5-11 9.667-15.5 15.5a2955.557 2955.557 0 0 1-56.5 69.5c33.998.5 67.998.667 102 .5h209a6085.37 6085.37 0 0 1-156 1h-156v-191h156Z"/><path style="opacity:1" fill="#9fbfad" d="M255.5 160.5h156v155a7558.582 7558.582 0 0 1-64.5-78c-13.82-13.528-28.987-15.361-45.5-5.5a1153.672 1153.672 0 0 0-46 53.5v-125Z"/><path style="opacity:1" fill="#ecf2c9" d="M221.5 184.5c22.161-.673 31.994 9.993 29.5 32-4.748 14.13-14.581 20.297-29.5 18.5-14.398-5.084-20.565-15.251-18.5-30.5 2.574-10.071 8.74-16.738 18.5-20Z"/><path style="opacity:1" fill="#76b086" d="M411.5 315.5v35h-133a28678.054 28678.054 0 0 1-23-28v-37a1153.672 1153.672 0 0 1 46-53.5c16.513-9.861 31.68-8.028 45.5 5.5a7558.582 7558.582 0 0 0 64.5 78Z"/><path style="opacity:1" fill="#87c99b" d="M255.5 286.5v35a271.053 271.053 0 0 1-15-17 44755.57 44755.57 0 0 1-38 46c-34.002.167-68.002 0-102-.5a2955.557 2955.557 0 0 0 56.5-69.5c4.5-5.833 9.667-11 15.5-15.5 13.262-6.738 25.929-5.738 38 3a1556.175 1556.175 0 0 0 30 35.5 179.132 179.132 0 0 0 15-17Z"/><path style="opacity:1" fill="#68be84" d="M255.5 321.5v29h-53a44755.57 44755.57 0 0 0 38-46 271.053 271.053 0 0 0 15 17Z"/><path style="opacity:1" fill="#5ca773" d="M255.5 322.5c7.637 9.309 15.303 18.642 23 28h-23v-28Z"/><path style="opacity:1" fill="#d9999b" d="M76.5 138.5v234h358c-116.832 1-233.832 1.333-351 1h-8c-.333-78.502 0-156.835 1-235Z"/><path style="opacity:1" fill="#fbf6f6" d="M280.5 399.5c7.216-.812 9.216 1.855 6 8-3.08 1.605-5.58.938-7.5-2-.409-2.195.091-4.195 1.5-6Z"/><path style="opacity:1" fill="#fcf8f9" d="M224.5 410.5c14.003-1.819 20.836 4.181 20.5 18-3.133 10.155-9.966 13.988-20.5 11.5-8.283-3.904-11.45-10.404-9.5-19.5 2.022-4.52 5.189-7.853 9.5-10Z"/><path style="opacity:1" fill="#fdfbfb" d="M342.5 437.5c.418.722 1.084 1.222 2 1.5a49.226 49.226 0 0 1-14 0c.916-.278 1.582-.778 2-1.5 1.155-6.821 1.321-13.821.5-21-2.333-2.667-4.667-2.667-7 0-.5 6.992-.666 13.992-.5 21h3v3h-15v-3h3c.166-7.341 0-14.674-.5-22-2.881-1.528-5.214-.862-7 2-.821 6.846-.654 13.513.5 20 .418.722 1.084 1.222 2 1.5a112.97 112.97 0 0 1-15 .5c.683-1.676 2.017-2.343 4-2 .166-7.674 0-15.341-.5-23a26.585 26.585 0 0 1-3.5-2 74.771 74.771 0 0 1 12-2 12.93 12.93 0 0 0 .5 5c3.411-5.112 7.911-6.278 13.5-3.5a6.978 6.978 0 0 1 2.5 3.5c5.166-6.208 10.499-6.541 16-1a260.63 260.63 0 0 0 1.5 23Z"/><path style="opacity:1" fill="#fcf8f8" d="M357.5 422.5c-4.994.171-6.828-2.162-5.5-7 4.922-4.702 10.755-6.202 17.5-4.5a17.842 17.842 0 0 1 4.5 5.5l1 19a29.144 29.144 0 0 0 2.5-5c.704 9.746-3.462 12.413-12.5 8-10.261 5.019-15.261 2.019-15-9 1.742-3.246 4.242-5.579 7.5-7Z"/><path style="opacity:1" fill="#fdf9f9" d="M448.5 426.5h-18c-.284 1.915.049 3.581 1 5 2.113 5.987 6.113 7.487 12 4.5a13.92 13.92 0 0 0 3-4c.832-.688 1.498-.521 2 .5-3.87 7.243-9.87 9.743-18 7.5-7.84-4.151-10.673-10.651-8.5-19.5 4.547-10.196 11.713-12.696 21.5-7.5 3.734 3.699 5.401 8.199 5 13.5Z"/><path style="opacity:1" fill="#fbf6f6" d="M186.5 410.5h4c-.47 4.47.53 4.97 3 1.5 3.916-1.987 7.75-1.821 11.5.5a111.224 111.224 0 0 1 1.5 25h4v3h-16v-3h3c.166-7.341 0-14.674-.5-22-2.267-1.435-4.267-1.102-6 1-.5 6.992-.666 13.992-.5 21h3v3h-16v-3h4c.166-7.674 0-15.341-.5-23a26.585 26.585 0 0 1-3.5-2 467.073 467.073 0 0 0 9-2Z"/><path style="opacity:1" fill="#fefdfd" d="M278.5 411.5h9c-.326 8.517.007 16.85 1 25 0 .667.333 1 1 1 .418.722 1.084 1.222 2 1.5-5.323.499-10.656.666-16 .5.683-1.676 2.017-2.343 4-2 .166-7.674 0-15.341-.5-23a26.585 26.585 0 0 1-3.5-2c.825-.886 1.825-1.219 3-1Z"/><path style="opacity:1" fill="#efd6d7" d="M278.5 411.5c3.125-.979 6.458-1.313 10-1v26c-.993-8.15-1.326-16.483-1-25h-9Z"/><path style="opacity:1" fill="#c87174" d="M227.5 412.5c3.92-.457 6.42 1.209 7.5 5a52.76 52.76 0 0 1-1 19c-3.805 3.039-6.805 2.372-9-2-.667-6-.667-12 0-18a16.58 16.58 0 0 1 2.5-4Z"/><path style="opacity:1" fill="#cd7b7e" d="M357.5 422.5c2.115-2.74 2.615-5.74 1.5-9 1.726-1.076 3.559-1.243 5.5-.5 2.915 6.926.582 10.093-7 9.5Z"/><path style="opacity:1" fill="#cb7679" d="M433.5 412.5c1.89-.203 3.39.463 4.5 2a24.362 24.362 0 0 1 1.5 10h-9c-.47-4.405.53-8.405 3-12Z"/><path style="opacity:1" fill="#e1b2b4" d="M363.5 424.5c.06-.543.393-.876 1-1 1.309 4.149 1.309 8.149 0 12 .315-3.871-.018-7.538-1-11Z"/><path style="opacity:1" fill="#c97275" d="M363.5 424.5c.982 3.462 1.315 7.129 1 11-.814 1.773-2.148 2.273-4 1.5-1.893-2.917-2.393-6.084-1.5-9.5 1.129-1.641 2.629-2.641 4.5-3Z"/><path style="opacity:1" fill="#e2b5b7" d="M448.5 426.5c-5.475.989-11.142 1.322-17 1v4c-.951-1.419-1.284-3.085-1-5h18Z"/><path style="opacity:1" fill="#fcf6f6" d="M402.5 427.5c-3.642.58-7.309 1.08-11 1.5 4.989.499 9.989.666 15 .5 8.133 1.652 10.133 6.152 6 13.5l-4 2a121.19 121.19 0 0 1-22 0c-2.352-.576-3.352-2.076-3-4.5-.014-2.111.652-3.945 2-5.5-.83-1.465-.996-2.965-.5-4.5a19.887 19.887 0 0 0 3.5-4c-4.894-6.815-3.561-11.982 4-15.5 4.418-.976 8.585-.476 12.5 1.5 3.787-2.481 7.454-2.481 11 0 1.45 5.385-.383 7.052-5.5 5-1.247-1.542-1.247-3.042 0-4.5-1.574-.699-2.907-.365-4 1 3.607 6.016 2.274 10.516-4 13.5Z"/><path style="opacity:1" fill="#c97174" d="M395.5 412.5c1.644-.214 3.144.12 4.5 1a30.485 30.485 0 0 1 0 11c-1.667 1.333-3.333 1.333-5 0-.762-4.087-.596-8.087.5-12Z"/><path style="opacity:1" fill="#d69597" d="m402.5 427.5 4 2a112.97 112.97 0 0 1-15-.5c3.691-.42 7.358-.92 11-1.5Z"/><path style="opacity:1" fill="#c87174" d="M388.5 437.5c7.008-.166 14.008 0 21 .5 1.206 2.709.206 4.375-3 5a64.218 64.218 0 0 1-16 0c-1.655-1.444-2.322-3.278-2-5.5Z"/><path style="opacity:1" fill="#efd6d7" d="M289.5 437.5h3v3c-5.858.322-11.525-.011-17-1 5.344.166 10.677-.001 16-.5-.916-.278-1.582-.778-2-1.5Z"/><path style="opacity:1" fill="#efd5d6" d="M309.5 437.5h3v3c-5.526.321-10.86-.012-16-1a112.97 112.97 0 0 0 15-.5c-.916-.278-1.582-.778-2-1.5Z"/><path style="opacity:1" fill="#edd1d3" d="M332.5 437.5c-.418.722-1.084 1.222-2 1.5 4.667.667 9.333.667 14 0-.916-.278-1.582-.778-2-1.5h3v3h-16v-3h3Z"/></svg>